<?xml version="1.0" encoding="UTF-8" standalone="no"?>
<svg
   xmlns:dc="http://purl.org/dc/elements/1.1/"
   xmlns:cc="http://creativecommons.org/ns#"
   xmlns:rdf="http://www.w3.org/1999/02/22-rdf-syntax-ns#"
   xmlns:svg="http://www.w3.org/2000/svg"
   xmlns="http://www.w3.org/2000/svg"
   xmlns:sodipodi="http://sodipodi.sourceforge.net/DTD/sodipodi-0.dtd"
   xmlns:inkscape="http://www.inkscape.org/namespaces/inkscape"
   version="1.0"
   width="150.000000pt"
   height="150.000000pt"
   viewBox="0 0 150.000000 150.000000"
   preserveAspectRatio="xMidYMid meet"
   id="svg18"
   sodipodi:docname="favicon-base.svg"
   inkscape:version="1.0.1 (3bc2e813f5, 2020-09-07)"
   inkscape:export-filename="C:\Users\Trym\Downloads\safari-pinned-tab.png"
   inkscape:export-xdpi="245.75999"
   inkscape:export-ydpi="245.75999">
  <defs
     id="defs22" />
  <sodipodi:namedview
     pagecolor="#ffffff"
     bordercolor="#666666"
     borderopacity="1"
     objecttolerance="10"
     gridtolerance="10"
     guidetolerance="10"
     inkscape:pageopacity="0"
     inkscape:pageshadow="2"
     inkscape:window-width="1372"
     inkscape:window-height="1020"
     id="namedview20"
     showgrid="false"
     inkscape:zoom="2.52"
     inkscape:cx="69.538869"
     inkscape:cy="92.335385"
     inkscape:window-x="1472"
     inkscape:window-y="196"
     inkscape:window-maximized="0"
     inkscape:current-layer="svg18" />
  <metadata
     id="metadata2">
Created by potrace 1.11, written by Peter Selinger 2001-2013
<rdf:RDF>
  <cc:Work
     rdf:about="">
    <dc:format>image/svg+xml</dc:format>
    <dc:type
       rdf:resource="http://purl.org/dc/dcmitype/StillImage" />
    <dc:title></dc:title>
  </cc:Work>
</rdf:RDF>
</metadata>
  <g
     transform="translate(0.000000,150.000000) scale(0.100000,-0.100000)"
     fill="#000000"
     stroke="none"
     id="g16"
     style="fill:#277d05;fill-opacity:1">
    <path
       d="M745 1450 c-75 -37 -125 -74 -200 -144 l-30 -28 45 26 c172 100 243 120 308 87 59 -30 67 -45 67 -125 -1 -80 -25 -142 -76 -196 -46 -48 -95 -64 -212 -70 -5 0 0 -15 11 -32 80 -135 102 -209 104 -348 1 -110 -4 -103 63 -86 11 3 40 10 65 16 56 14 110 39 110 52 0 6 6 24 14 41 16 34 46 129 51 162 2 11 6 31 10 45 3 14 8 40 11 59 3 18 8 43 10 55 7 31 6 246 -1 286 -8 49 -38 133 -52 148 -7 7 -16 19 -20 26 -5 6 -24 24 -44 39 -30 22 -46 27 -95 27 -49 0 -73 -7 -139 -40z"
       id="path4"
       style="fill:#277d05;fill-opacity:1" />
    <path
       d="M509 1228 c-57 -40 -110 -78 -117 -85 -7 -7 -16 -13 -20 -13 -4 0 -19 -10 -34 -23 -15 -12 -63 -47 -108 -77 -85 -58 -101 -83 -81 -126 8 -18 18 -24 44 -24 48 0 68 19 73 70 3 32 11 50 26 63 31 24 99 81 129 109 14 13 52 46 84 73 151 129 152 135 4 33z"
       id="path6"
       style="fill:#277d05;fill-opacity:1" />
    <path
       d="M662 1265 c-36 -16 -55 -51 -58 -109 -1 -31 5 -46 30 -73 70 -77 197 -33 202 69 4 97 -82 153 -174 113z"
       id="path8"
       style="fill:#277d05;fill-opacity:1" />
    <path
       d="M308 834 c-110 -102 -163 -189 -163 -270 0 -57 27 -92 100 -129 54 -27 69 -30 184 -33 144 -5 251 11 393 59 118 39 279 121 265 135 -2 2 -35 -10 -74 -26 -225 -95 -524 -123 -671 -65 -135 54 -134 185 3 333 31 34 52 62 46 62 -6 0 -43 -30 -83 -66z"
       id="path10"
       style="fill:#277d05;fill-opacity:1" />
    <path
       d="M1269 766 c-24 -17 -39 -50 -33 -73 6 -20 42 -43 69 -43 22 0 45 30 45 59 0 43 -51 79 -81 57z"
       id="path12"
       style="fill:#277d05;fill-opacity:1" />
    <path
       d="M885 458 c-11 -7 -49 -19 -85 -28 l-65 -16 -35 -69 c-57 -113 -101 -173 -207 -280 -29 -29 -53 -56 -53 -59 0 -18 147 66 212 121 111 94 278 295 278 336 0 11 -22 8 -45 -5z"
       id="path14"
       style="fill:#277d05;fill-opacity:1" />
  </g>
</svg>
